<?xml version="1.0" encoding="UTF-8"?>
<svg version="1.1" xmlns="http://www.w3.org/2000/svg" width="1581" height="1071">
<path d="M0 0 C50.49 0 100.98 0 153 0 C153 16.83 153 33.66 153 51 C136.17 51 119.34 51 102 51 C102 101.49 102 151.98 102 204 C118.83 204 135.66 204 153 204 C153 220.83 153 237.66 153 255 C102.51 255 52.02 255 0 255 C0 238.17 0 221.34 0 204 C16.83 204 33.66 204 51 204 C51 153.51 51 103.02 51 51 C34.17 51 17.34 51 0 51 C0 34.17 0 17.34 0 0 Z " fill="#715BA4" transform="translate(969,408)"/>
<path d="M0 0 C16.83 0 33.66 0 51 0 C51 67.32 51 134.64 51 204 C101.49 204 151.98 204 204 204 C204 220.83 204 237.66 204 255 C136.68 255 69.36 255 0 255 C0 170.85 0 86.7 0 0 Z " fill="#715BA4" transform="translate(204,408)"/>
<path d="M0 0 C16.83 0 33.66 0 51 0 C51 84.15 51 168.3 51 255 C34.17 255 17.34 255 0 255 C0 221.34 0 187.68 0 153 C-16.83 153 -33.66 153 -51 153 C-51 136.17 -51 119.34 -51 102 C-34.17 102 -17.34 102 0 102 C0 68.34 0 34.68 0 0 Z " fill="#715BA4" transform="translate(1326,408)"/>
<path d="M0 0 C16.83 0 33.66 0 51 0 C51 16.83 51 33.66 51 51 C67.83 51 84.66 51 102 51 C102 67.83 102 84.66 102 102 C85.17 102 68.34 102 51 102 C51 152.49 51 202.98 51 255 C34.17 255 17.34 255 0 255 C0 170.85 0 86.7 0 0 Z " fill="#715BA4" transform="translate(1173,408)"/>
<path d="M0 0 C33.66 0 67.32 0 102 0 C102 33.66 102 67.32 102 102 C85.17 102 68.34 102 51 102 C51 85.17 51 68.34 51 51 C34.17 51 17.34 51 0 51 C0 34.17 0 17.34 0 0 Z " fill="#715BA4" transform="translate(816,510)"/>
<path d="M0 0 C16.83 0 33.66 0 51 0 C51 50.49 51 100.98 51 153 C34.17 153 17.34 153 0 153 C0 102.51 0 52.02 0 0 Z " fill="#715BA4" transform="translate(714,459)"/>
<path d="M0 0 C16.83 0 33.66 0 51 0 C51 50.49 51 100.98 51 153 C34.17 153 17.34 153 0 153 C0 102.51 0 52.02 0 0 Z " fill="#715BA4" transform="translate(612,459)"/>
<path d="M0 0 C16.83 0 33.66 0 51 0 C51 50.49 51 100.98 51 153 C34.17 153 17.34 153 0 153 C0 102.51 0 52.02 0 0 Z " fill="#715BA4" transform="translate(459,459)"/>
<path d="M0 0 C33.66 0 67.32 0 102 0 C102 16.83 102 33.66 102 51 C68.34 51 34.68 51 0 51 C0 34.17 0 17.34 0 0 Z " fill="#715BA4" transform="translate(765,612)"/>
<path d="M0 0 C33.66 0 67.32 0 102 0 C102 16.83 102 33.66 102 51 C68.34 51 34.68 51 0 51 C0 34.17 0 17.34 0 0 Z " fill="#715BA4" transform="translate(510,612)"/>
<path d="M0 0 C33.66 0 67.32 0 102 0 C102 16.83 102 33.66 102 51 C68.34 51 34.68 51 0 51 C0 34.17 0 17.34 0 0 Z " fill="#715BA4" transform="translate(765,408)"/>
<path d="M0 0 C33.66 0 67.32 0 102 0 C102 16.83 102 33.66 102 51 C68.34 51 34.68 51 0 51 C0 34.17 0 17.34 0 0 Z " fill="#715BA4" transform="translate(510,408)"/>
</svg>
